<svg preserveAspectRatio="none" width="100%" height="100%" overflow="visible" style="display: block;" viewBox="0 0 1281 799" fill="none" xmlns="http://www.w3.org/2000/svg">
<g id="Frame 200186">
<line id="Line 3" x1="0.500025" y1="3.05827e-08" x2="0.5" y2="799" stroke="#B7B7B7" stroke-dasharray="1 22"/>
<line id="Line 4" x1="20.5" y1="3.05827e-08" x2="20.5" y2="799" stroke="#B7B7B7" stroke-dasharray="1 22"/>
<line id="Line 5" x1="40.5001" y1="3.05827e-08" x2="40.5" y2="799" stroke="#B7B7B7" stroke-dasharray="1 22"/>
<line id="Line 6" x1="60.5001" y1="3.05827e-08" x2="60.5001" y2="799" stroke="#B7B7B7" stroke-dasharray="1 22"/>
<line id="Line 7" x1="80.5001" y1="3.05827e-08" x2="80.5001" y2="799" stroke="#B7B7B7" stroke-dasharray="1 22"/>
<line id="Line 8" x1="100.5" y1="3.05827e-08" x2="100.5" y2="799" stroke="#B7B7B7" stroke-dasharray="1 22"/>
<line id="Line 9" x1="120.5" y1="3.05827e-08" x2="120.5" y2="799" stroke="#B7B7B7" stroke-dasharray="1 22"/>
<line id="Line 10" x1="140.5" y1="3.05827e-08" x2="140.5" y2="799" stroke="#B7B7B7" stroke-dasharray="1 22"/>
<line id="Line 11" x1="160.5" y1="3.05827e-08" x2="160.5" y2="799" stroke="#B7B7B7" stroke-dasharray="1 22"/>
<line id="Line 55" x1="180.5" y1="3.05827e-08" x2="180.5" y2="799" stroke="#B7B7B7" stroke-dasharray="1 22"/>
<line id="Line 56" x1="200.5" y1="3.05827e-08" x2="200.5" y2="799" stroke="#B7B7B7" stroke-dasharray="1 22"/>
<line id="Line 57" x1="220.5" y1="3.05827e-08" x2="220.5" y2="799" stroke="#B7B7B7" stroke-dasharray="1 22"/>
<line id="Line 58" x1="240.5" y1="3.05827e-08" x2="240.5" y2="799" stroke="#B7B7B7" stroke-dasharray="1 22"/>
<line id="Line 59" x1="260.5" y1="3.05827e-08" x2="260.5" y2="799" stroke="#B7B7B7" stroke-dasharray="1 22"/>
<line id="Line 60" x1="280.5" y1="3.05827e-08" x2="280.5" y2="799" stroke="#B7B7B7" stroke-dasharray="1 22"/>
<line id="Line 61" x1="300.5" y1="3.05827e-08" x2="300.5" y2="799" stroke="#B7B7B7" stroke-dasharray="1 22"/>
<line id="Line 62" x1="320.5" y1="3.05827e-08" x2="320.5" y2="799" stroke="#B7B7B7" stroke-dasharray="1 22"/>
<line id="Line 63" x1="340.5" y1="3.05827e-08" x2="340.5" y2="799" stroke="#B7B7B7" stroke-dasharray="1 22"/>
<line id="Line 64" x1="360.501" y1="3.05827e-08" x2="360.5" y2="799" stroke="#B7B7B7" stroke-dasharray="1 22"/>
<line id="Line 65" x1="380.501" y1="3.05827e-08" x2="380.501" y2="799" stroke="#B7B7B7" stroke-dasharray="1 22"/>
<line id="Line 66" x1="400.501" y1="3.05827e-08" x2="400.501" y2="799" stroke="#B7B7B7" stroke-dasharray="1 22"/>
<line id="Line 67" x1="420.501" y1="3.05827e-08" x2="420.501" y2="799" stroke="#B7B7B7" stroke-dasharray="1 22"/>
<line id="Line 12" x1="440.501" y1="3.05827e-08" x2="440.501" y2="799" stroke="#B7B7B7" stroke-dasharray="1 22"/>
<line id="Line 13" x1="460.501" y1="3.05827e-08" x2="460.501" y2="799" stroke="#B7B7B7" stroke-dasharray="1 22"/>
<line id="Line 14" x1="480.501" y1="3.05827e-08" x2="480.501" y2="799" stroke="#B7B7B7" stroke-dasharray="1 22"/>
<line id="Line 15" x1="500.501" y1="3.05827e-08" x2="500.501" y2="799" stroke="#B7B7B7" stroke-dasharray="1 22"/>
<line id="Line 16" x1="520.501" y1="3.05827e-08" x2="520.501" y2="799" stroke="#B7B7B7" stroke-dasharray="1 22"/>
<line id="Line 17" x1="540.501" y1="3.05827e-08" x2="540.501" y2="799" stroke="#B7B7B7" stroke-dasharray="1 22"/>
<line id="Line 18" x1="560.501" y1="3.05827e-08" x2="560.501" y2="799" stroke="#B7B7B7" stroke-dasharray="1 22"/>
<line id="Line 19" x1="580.501" y1="3.05827e-08" x2="580.501" y2="799" stroke="#B7B7B7" stroke-dasharray="1 22"/>
<line id="Line 20" x1="600.501" y1="3.05827e-08" x2="600.501" y2="799" stroke="#B7B7B7" stroke-dasharray="1 22"/>
<line id="Line 21" x1="620.501" y1="3.05827e-08" x2="620.501" y2="799" stroke="#B7B7B7" stroke-dasharray="1 22"/>
<line id="Line 22" x1="640.501" y1="3.05827e-08" x2="640.501" y2="799" stroke="#B7B7B7" stroke-dasharray="1 22"/>
<line id="Line 23" x1="660.501" y1="3.05827e-08" x2="660.501" y2="799" stroke="#B7B7B7" stroke-dasharray="1 22"/>
<line id="Line 24" x1="680.501" y1="3.05827e-08" x2="680.501" y2="799" stroke="#B7B7B7" stroke-dasharray="1 22"/>
<line id="Line 25" x1="700.501" y1="3.05827e-08" x2="700.501" y2="799" stroke="#B7B7B7" stroke-dasharray="1 22"/>
<line id="Line 26" x1="720.501" y1="3.05827e-08" x2="720.501" y2="799" stroke="#B7B7B7" stroke-dasharray="1 22"/>
<line id="Line 27" x1="740.501" y1="3.05827e-08" x2="740.501" y2="799" stroke="#B7B7B7" stroke-dasharray="1 22"/>
<line id="Line 28" x1="760.501" y1="3.05827e-08" x2="760.501" y2="799" stroke="#B7B7B7" stroke-dasharray="1 22"/>
<line id="Line 29" x1="780.501" y1="3.05827e-08" x2="780.501" y2="799" stroke="#B7B7B7" stroke-dasharray="1 22"/>
<line id="Line 30" x1="800.501" y1="3.05827e-08" x2="800.501" y2="799" stroke="#B7B7B7" stroke-dasharray="1 22"/>
<line id="Line 31" x1="820.501" y1="3.05827e-08" x2="820.501" y2="799" stroke="#B7B7B7" stroke-dasharray="1 22"/>
<line id="Line 32" x1="840.501" y1="3.05827e-08" x2="840.501" y2="799" stroke="#B7B7B7" stroke-dasharray="1 22"/>
<line id="Line 33" x1="860.501" y1="3.05827e-08" x2="860.501" y2="799" stroke="#B7B7B7" stroke-dasharray="1 22"/>
<line id="Line 34" x1="880.501" y1="3.05827e-08" x2="880.501" y2="799" stroke="#B7B7B7" stroke-dasharray="1 22"/>
<line id="Line 35" x1="900.501" y1="3.05827e-08" x2="900.501" y2="799" stroke="#B7B7B7" stroke-dasharray="1 22"/>
<line id="Line 36" x1="920.501" y1="3.05827e-08" x2="920.501" y2="799" stroke="#B7B7B7" stroke-dasharray="1 22"/>
<line id="Line 37" x1="940.501" y1="3.05827e-08" x2="940.501" y2="799" stroke="#B7B7B7" stroke-dasharray="1 22"/>
<line id="Line 38" x1="960.501" y1="3.05827e-08" x2="960.501" y2="799" stroke="#B7B7B7" stroke-dasharray="1 22"/>
<line id="Line 39" x1="980.501" y1="3.05827e-08" x2="980.501" y2="799" stroke="#B7B7B7" stroke-dasharray="1 22"/>
<line id="Line 40" x1="1000.5" y1="3.05827e-08" x2="1000.5" y2="799" stroke="#B7B7B7" stroke-dasharray="1 22"/>
<line id="Line 41" x1="1020.5" y1="3.05827e-08" x2="1020.5" y2="799" stroke="#B7B7B7" stroke-dasharray="1 22"/>
<line id="Line 42" x1="1040.5" y1="3.05827e-08" x2="1040.5" y2="799" stroke="#B7B7B7" stroke-dasharray="1 22"/>
<line id="Line 43" x1="1060.5" y1="3.05827e-08" x2="1060.5" y2="799" stroke="#B7B7B7" stroke-dasharray="1 22"/>
<line id="Line 44" x1="1080.5" y1="3.05827e-08" x2="1080.5" y2="799" stroke="#B7B7B7" stroke-dasharray="1 22"/>
<line id="Line 45" x1="1100.5" y1="3.05827e-08" x2="1100.5" y2="799" stroke="#B7B7B7" stroke-dasharray="1 22"/>
<line id="Line 46" x1="1120.5" y1="3.05827e-08" x2="1120.5" y2="799" stroke="#B7B7B7" stroke-dasharray="1 22"/>
<line id="Line 47" x1="1140.5" y1="3.05827e-08" x2="1140.5" y2="799" stroke="#B7B7B7" stroke-dasharray="1 22"/>
<line id="Line 48" x1="1160.5" y1="3.05827e-08" x2="1160.5" y2="799" stroke="#B7B7B7" stroke-dasharray="1 22"/>
<line id="Line 49" x1="1180.5" y1="3.05827e-08" x2="1180.5" y2="799" stroke="#B7B7B7" stroke-dasharray="1 22"/>
<line id="Line 50" x1="1200.5" y1="3.05827e-08" x2="1200.5" y2="799" stroke="#B7B7B7" stroke-dasharray="1 22"/>
<line id="Line 51" x1="1220.5" y1="3.05827e-08" x2="1220.5" y2="799" stroke="#B7B7B7" stroke-dasharray="1 22"/>
<line id="Line 52" x1="1240.5" y1="3.05827e-08" x2="1240.5" y2="799" stroke="#B7B7B7" stroke-dasharray="1 22"/>
<line id="Line 53" x1="1260.5" y1="3.05827e-08" x2="1260.5" y2="799" stroke="#B7B7B7" stroke-dasharray="1 22"/>
<line id="Line 54" x1="1280.5" y1="3.05827e-08" x2="1280.5" y2="799" stroke="#B7B7B7" stroke-dasharray="1 22"/>
</g>
</svg>
