<svg preserveAspectRatio="none" width="100%" height="100%" overflow="visible" style="display: block;" viewBox="0 0 20.25 20.25" fill="none" xmlns="http://www.w3.org/2000/svg">
<g id="location-arrow 1" clip-path="url(#clip0_0_8)">
<path id="Vector" d="M15.9509 0.61879C17.0395 0.210636 18.1899 0.461734 18.989 1.26137H18.99C19.7432 2.0139 20.0077 3.07423 19.7077 4.07875L19.6404 4.27895L13.8825 18.151L13.8777 18.1647C13.4341 19.341 12.4294 19.8278 11.4704 19.8278C11.3032 19.8278 11.1381 19.813 10.9782 19.7838H10.9773C9.89732 19.5872 8.83665 18.7191 8.83665 17.2174V11.402H3.03293C1.52992 11.4026 0.662233 10.3412 0.465552 9.26039C0.281317 8.24813 0.655112 7.04391 1.86106 6.46059L2.11399 6.35219L2.12668 6.34731L15.9509 0.61879Z" fill="#84B491" stroke="#678D71" stroke-width="0.842598"/>
</g>
<defs>
<clipPath id="clip0_0_8">
<rect width="20.25" height="20.25" fill="white"/>
</clipPath>
</defs>
</svg>
